<svg width="226" height="167" viewBox="0 0 226 167" fill="none" xmlns="http://www.w3.org/2000/svg">
<g filter="url(#filter0_d_353_4717)">
<rect x="21.3229" y="21.3229" width="182.562" height="124.354" rx="14.5521" fill="white" stroke="#D9D9D9" stroke-width="2.64583"/>
<path fill-rule="evenodd" clip-rule="evenodd" d="M131.676 109.138C132.719 106.49 135.039 100.557 133.936 99.1198H133.944C132.845 97.6791 126.679 98.4351 123.905 98.7752L123.899 98.7759C123.055 98.8795 122.925 98.1296 123.684 97.5869C128.609 94.0529 136.678 95.0638 137.615 96.257C138.553 97.4502 137.36 105.711 132.747 109.655C132.037 110.26 131.36 109.937 131.676 109.138ZM98.5349 113.223C109.261 113.223 121.753 109.763 130.357 103.28V103.292C131.781 102.198 130.56 100.591 129.108 101.221C119.715 105.266 109.633 107.378 99.4395 107.435C85.2971 107.435 71.6172 103.474 60.5499 96.8995C59.5803 96.3236 58.8582 97.3386 59.6696 98.0802C70.3242 107.897 84.1846 113.298 98.5349 113.223Z" fill="#FF9900"/>
<path fill-rule="evenodd" clip-rule="evenodd" d="M168.675 93.8089H173.243H173.247C173.725 93.818 174.122 93.4347 174.139 92.9469V80.0167C174.139 78.3926 174.225 76.926 174.866 75.4594C175.306 74.3437 176.342 73.5926 177.519 73.537C180.441 73.537 180.413 76.8069 180.391 79.3758C180.389 79.5924 180.387 79.8041 180.387 80.0084V93.0546C180.444 93.4732 180.785 93.7906 181.199 93.8089H185.807C186.244 93.8181 186.621 93.4957 186.688 93.0546V77.9369C186.688 75.6127 186.688 72.377 185.491 70.4547C184.197 68.3832 182.192 67.625 180.14 67.625C176.975 67.625 175.178 69.191 173.896 72.4764H173.807V68.8016C173.714 68.4174 173.383 68.1431 172.995 68.1304H168.744C168.295 68.1192 167.912 68.4614 167.863 68.9176V92.9469C167.869 93.4077 168.224 93.7847 168.675 93.8089ZM164.375 81.2055C164.375 73.6238 160.695 67.6579 153.892 67.6579C147.263 67.6579 143.583 73.5244 143.583 80.9528C143.583 88.3812 147.218 94.3471 153.892 94.3471C160.318 94.3471 164.375 88.5344 164.375 81.2055ZM150.342 80.1947C150.342 77.2615 150.557 72.5633 153.936 72.5633C155.388 72.5633 156.415 73.2303 156.93 74.8875C157.53 76.8057 157.616 79.2335 157.616 81.2553C157.616 84.3377 157.482 89.3921 153.891 89.3921C150.34 89.3921 150.341 83.2639 150.342 80.2919L150.342 80.1947ZM64.6192 93.8587H69.1994H69.2035C69.4334 93.864 69.6559 93.7758 69.8219 93.6133C69.9879 93.4508 70.0836 93.2274 70.0879 92.9926V80.2612L70.0878 80.0619C70.0859 77.2937 70.0834 73.6324 73.2523 73.6324C76.1818 73.6324 76.1365 76.8493 76.0999 79.447C76.096 79.7272 76.0921 80.0002 76.0921 80.2612V92.9967C76.0999 93.4566 76.4538 93.8325 76.9035 93.8587H81.4959C81.7251 93.8629 81.9467 93.7742 82.1118 93.6118C82.2769 93.4494 82.372 93.2267 82.3763 92.9926V80.2612L82.3762 80.115L82.3759 79.9585V79.9585C82.3731 78.6095 82.3694 76.7893 82.8063 75.6583C83.2518 74.5023 84.3288 73.7284 85.5447 73.6904C86.8714 73.6904 87.8978 74.1462 88.2385 75.7619C88.4125 76.5396 88.39 78.3423 88.375 79.5377V79.5378C88.3715 79.8199 88.3684 80.0682 88.3684 80.2612V92.9967C88.3742 93.4575 88.7292 93.8345 89.1797 93.8587H93.76C93.9899 93.864 94.2125 93.7758 94.3785 93.6133C94.5445 93.4508 94.6402 93.2274 94.6444 92.9926V77.8334C94.6444 77.4638 94.6507 77.0861 94.657 76.7042C94.6945 74.4408 94.7344 72.0314 93.4882 70.3015C91.9775 68.3392 89.5481 67.3613 87.1326 67.7434C84.7172 68.1255 82.6912 69.8081 81.8327 72.1451C80.5466 69.1083 78.7088 67.6955 75.8852 67.6955C73.0616 67.6955 70.9642 69.1083 69.8526 72.1451H69.7674V69.0089C69.7432 68.5618 69.3937 68.2049 68.956 68.1803H64.6841C64.2123 68.1755 63.8232 68.5563 63.8078 69.0379V93.0672C63.8493 93.4996 64.1943 93.836 64.6192 93.8587ZM56.6472 94.0405C56.3455 94.3077 55.912 94.3525 55.564 94.1524C54.2659 93.0495 53.8746 92.4533 53.2736 91.5378C53.1702 91.3803 53.0606 91.2133 52.9392 91.0327C50.4198 93.6511 48.6388 94.4341 45.3811 94.4341C41.523 94.4341 38.5209 92.0022 38.5209 87.1383C38.5209 83.3392 40.5493 80.7581 43.3892 79.4904C45.4862 78.5506 48.2841 78.259 50.703 78.0068C51.1528 77.9599 51.5895 77.9144 52.0061 77.8663V77.2615C52.0061 77.146 52.007 77.0283 52.0079 76.9091C52.0159 75.8778 52.0249 74.7295 51.4503 73.8642C50.8904 73.0025 49.8275 72.6503 48.8782 72.6503C47.1297 72.6503 45.5718 73.5659 45.1905 75.4593C45.1421 75.9009 44.8093 76.2544 44.3791 76.321L39.9733 75.828C39.7534 75.7958 39.5561 75.673 39.4273 75.4883C39.2985 75.3035 39.2495 75.0729 39.2917 74.8502C40.31 69.3483 45.1783 67.687 49.5395 67.687C51.7708 67.687 54.6836 68.2919 56.4362 70.0154C58.4936 71.9825 58.4809 74.5576 58.467 77.3718C58.4659 77.6041 58.4647 77.8381 58.4647 78.0735V85.361C58.4647 87.3237 59.1778 88.2999 59.9289 89.3283C60.0181 89.4505 60.1078 89.5733 60.197 89.6987C60.4891 90.113 60.554 90.6309 60.197 90.9416C59.2599 91.7412 57.5965 93.2161 56.6837 94.0488L56.6472 94.0405ZM52.0263 82.6309L52.0264 82.8577C52.028 84.581 52.0294 86.0423 51.1703 87.6025C50.44 88.9199 49.2838 89.732 47.9937 89.732C46.2371 89.732 45.2107 88.3648 45.2107 86.3347C45.2107 82.3492 48.7118 81.6241 52.0263 81.6241V82.6309ZM119.995 89.3116L119.996 89.3129L119.997 89.3139C120.086 89.4354 120.175 89.5578 120.264 89.6825C120.572 90.1134 120.637 90.6189 120.244 90.9047C119.307 91.7043 117.643 93.1834 116.73 94.012C116.427 94.2755 115.995 94.3184 115.647 94.1197C114.344 93.012 113.957 92.4246 113.348 91.4971L113.348 91.4971L113.348 91.4968C113.246 91.342 113.138 91.1777 113.018 91C110.503 93.6184 108.71 94.4014 105.464 94.4014C101.606 94.4014 98.6041 91.9695 98.6041 87.1097C98.6041 83.3065 100.62 80.7254 103.493 79.4577C105.594 78.5143 108.408 78.224 110.834 77.9737C111.274 77.9283 111.701 77.8842 112.11 77.8377V77.2453C112.11 77.1304 112.11 77.0133 112.111 76.8947C112.119 75.863 112.128 74.7143 111.55 73.8522C111.006 72.9905 109.923 72.6342 108.978 72.6342C107.229 72.6342 105.679 73.5498 105.294 75.4431C105.244 75.8841 104.912 76.2369 104.483 76.3048L100.04 75.816C99.8188 75.7849 99.6197 75.662 99.4899 75.4761C99.3601 75.2903 99.3112 75.058 99.3546 74.8341C100.377 69.3281 105.245 67.6709 109.606 67.6709C111.834 67.6709 114.747 68.2757 116.503 69.9992C118.565 71.9561 118.55 74.5113 118.534 77.3111C118.533 77.5581 118.532 77.8069 118.532 78.0573V85.349C118.532 87.3076 119.244 88.2835 119.995 89.3116ZM108.085 89.7071C109.371 89.7071 110.531 88.8951 111.258 87.5818C112.12 86.0131 112.119 84.5449 112.118 82.8001L112.118 82.6143V81.6034C108.803 81.6034 105.302 82.3243 105.302 86.314C105.302 88.3399 106.328 89.7071 108.085 89.7071ZM124.142 68.9547V72.3768C124.14 72.6115 124.232 72.837 124.397 73.0007C124.561 73.1643 124.785 73.2518 125.014 73.2427H132.901L123.858 86.5002C123.445 87.2114 123.25 88.0324 123.298 88.8576V92.3584C123.298 92.8639 123.846 93.4397 124.369 93.1539C129.357 90.513 135.288 90.5021 140.285 93.1249C140.857 93.4273 141.396 92.8431 141.396 92.3377V88.6587C141.381 88.0962 141.071 87.5853 140.585 87.3205C137.952 85.8084 134.889 85.3651 131.992 85.4355L139.798 74.0589C140.524 73.0397 140.93 72.3934 140.93 71.9004V68.9547C140.932 68.7207 140.841 68.4959 140.677 68.3324C140.513 68.1689 140.291 68.0809 140.062 68.0888H124.998C124.769 68.0757 124.545 68.1624 124.382 68.3274C124.218 68.4925 124.131 68.7204 124.142 68.9547Z" fill="black"/>
</g>
<defs>
<filter id="filter0_d_353_4717" x="0" y="0" width="225.208" height="167" filterUnits="userSpaceOnUse" color-interpolation-filters="sRGB">
<feFlood flood-opacity="0" result="BackgroundImageFix"/>
<feColorMatrix in="SourceAlpha" type="matrix" values="0 0 0 0 0 0 0 0 0 0 0 0 0 0 0 0 0 0 127 0" result="hardAlpha"/>
<feOffset/>
<feGaussianBlur stdDeviation="10"/>
<feComposite in2="hardAlpha" operator="out"/>
<feColorMatrix type="matrix" values="0 0 0 0 0 0 0 0 0 0 0 0 0 0 0 0 0 0 0.07 0"/>
<feBlend mode="normal" in2="BackgroundImageFix" result="effect1_dropShadow_353_4717"/>
<feBlend mode="normal" in="SourceGraphic" in2="effect1_dropShadow_353_4717" result="shape"/>
</filter>
</defs>
</svg>
