<svg width="299" height="298" viewBox="0 0 299 298" fill="none" xmlns="http://www.w3.org/2000/svg">
<mask id="mask0_47_97" style="mask-type:luminance" maskUnits="userSpaceOnUse" x="0" y="0" width="299" height="298">
<path d="M0 0H299V297.333H0V0Z" fill="white"/>
</mask>
<g mask="url(#mask0_47_97)">
<path d="M160.068 149.063L295.979 13.6564C299 10.6356 299 6.10433 295.979 3.0835C292.958 0.0626628 288.427 0.0626628 285.406 3.0835L149.5 138.49L14.0938 2.5835C11.0729 -0.437337 6.54167 -0.437337 3.52083 2.5835C0.499999 5.59912 0.499999 10.1304 3.52083 13.1512L138.927 149.063L3.01563 284.469C-2.24682e-08 287.485 -2.24682e-08 292.016 3.01563 295.037C6.03646 298.057 11.0729 298.057 13.5885 295.037L149.5 159.63L284.901 295.037C286.411 296.547 288.427 297.052 290.443 297.052C292.453 297.052 294.469 296.042 295.979 295.037C299 292.016 299 287.485 295.979 284.469L160.068 149.063Z" fill="black"/>
</g>
</svg>
