<svg width="294" height="257" viewBox="0 0 294 257" fill="none" xmlns="http://www.w3.org/2000/svg">
<mask id="mask0_35_61" style="mask-type:luminance" maskUnits="userSpaceOnUse" x="0" y="0" width="294" height="257">
<path d="M0 0H293.333V256.37H0V0Z" fill="white"/>
</mask>
<g mask="url(#mask0_35_61)">
<path d="M146.953 256.276C144.984 256.26 143.714 255.156 143.422 254.885L29.9844 141.448C2.98441 117.016 -6.30205 79.776 6.28128 48.8593C20.948 12.828 57.9688 3.42701 60.4584 2.84368C92.2709 -4.5782 126.266 9.24993 146.984 37.4635C167.708 9.24993 201.708 -4.5782 233.51 2.84368C235.109 3.21868 272.854 12.401 287.688 48.8593C300.37 80.0208 290.844 117.213 263.99 141.448L150.552 254.885C150.266 255.146 148.958 256.286 146.953 256.276ZM62.474 11.4739C60.375 11.9635 27.4948 20.2395 14.4896 52.1978C3.19795 79.9478 11.8386 113.198 36 134.943L36.1667 135.104L146.984 245.922L257.885 135.021L257.974 134.943C282.13 113.198 290.771 79.9478 279.484 52.1978C266.354 19.9426 232.917 11.802 231.5 11.4739C201.354 4.43743 168.901 18.9947 150.729 47.6874L146.984 53.5989L143.24 47.6874C125.073 18.8176 92.3438 4.4843 62.474 11.4739Z" fill="#5F6368"/>
</g>
</svg>
