<svg width="500" height="500" viewBox="0 0 500 500" fill="none" xmlns="http://www.w3.org/2000/svg">
<path d="M246.562 299.865C239.228 309.464 235.562 319.839 235.562 330.99C235.562 344.256 241.135 354.553 252.291 361.886C258.775 366.261 266.145 368.449 274.395 368.449C282.655 368.449 289.822 366.829 295.895 363.595C307.338 357.662 313.76 347.714 315.166 333.74C315.301 332.756 315.374 331.761 315.374 330.761C315.374 325.542 313.926 319.897 311.041 313.824C308.15 307.756 303.458 302.188 296.958 297.115L258.853 267.032C250.52 260.548 246.353 252.152 246.353 241.845C246.353 231.542 249.671 222.824 256.312 215.699C262.947 208.574 271.916 205.011 283.208 205.011C288.843 205.011 294.984 205.714 301.624 207.115H310.083L310.52 233.157H308.395C308.254 226.381 305.817 221.053 301.083 217.178C296.359 213.303 290.426 211.365 283.291 211.365C276.166 211.365 270.197 213.73 265.395 218.449C260.603 223.173 258.208 229.24 258.208 236.657C258.208 244.074 261.317 250.251 267.541 255.178L306.708 286.095C322.234 298.376 329.999 313.194 329.999 330.553C329.999 343.542 324.843 354.694 314.541 364.011C305.635 372.053 293.775 376.074 278.958 376.074C269.926 376.074 261.885 374.376 254.833 370.99C241.551 364.782 233.572 354.199 230.895 339.24C230.478 336.98 230.27 334.115 230.27 330.657C230.27 327.199 231.254 322.48 233.228 316.49C235.197 310.49 239.01 304.459 244.666 298.386L246.562 299.865Z" fill="black"/>
<path d="M278.765 312.386H281.307V314.511H235.14V312.386H237.89C241.416 312.386 244.484 311.157 247.098 308.698C249.708 306.23 251.161 303.152 251.452 299.469V244.428H169.515V299.698C169.515 319.448 164.713 332.709 155.119 339.49C150.744 342.6 145.098 344.933 138.182 346.49L137.119 344.573C143.463 341.183 148.15 335.959 151.182 328.907C154.223 321.85 155.744 312.115 155.744 299.698V181.553C155.744 177.876 154.4 174.771 151.723 172.24C149.041 169.698 145.869 168.428 142.202 168.428H139.661V166.303H185.807V168.428H183.057C179.39 168.428 176.249 169.698 173.64 172.24C171.025 174.771 169.65 177.876 169.515 181.553V238.073H251.452V185.365C251.588 167.297 255.609 154.735 263.515 147.678C268.317 143.443 274.812 140.407 282.994 138.573L284.057 140.469C277.708 143.86 272.979 149.084 269.869 156.136C266.755 163.193 265.202 172.938 265.202 185.365V299.053C265.202 302.719 266.505 305.86 269.119 308.469C271.729 311.084 274.942 312.386 278.765 312.386Z" fill="black"/>
<path d="M98.6405 247.505H371.031C372.443 247.505 373.802 248.068 374.802 249.068C375.802 250.068 376.364 251.427 376.364 252.838V263.51C376.364 264.927 375.802 266.281 374.802 267.286C373.802 268.286 372.443 268.849 371.031 268.849H98.6405C95.6925 268.849 93.3071 266.458 93.3071 263.51V252.838C93.3071 249.896 95.6925 247.505 98.6405 247.505Z" fill="#F0E9E0"/>
<path d="M104.709 262.175V252.696H106.438V256.613H110.938V252.696H112.667V262.175H110.938V258.134H106.438V262.175H104.709Z" fill="black"/>
<path d="M130.878 254.196H126.461V256.634H130.649V258.134H126.461V260.675H131.024L130.92 262.175H124.774V252.696H130.878V254.196Z" fill="black"/>
<path d="M141.372 262.175L145.414 252.696H146.872L150.768 262.175H148.997L148.143 260.009H144.018L143.122 262.175H141.372ZM144.601 258.55H147.58L146.122 254.821L144.601 258.55Z" fill="black"/>
<path d="M167.841 252.696H169.57L166.112 262.175H163.695L160.82 252.696H162.674L165.008 260.717L167.841 252.696Z" fill="black"/>
<path d="M186.468 254.196H182.051V256.634H186.239V258.134H182.051V260.675H186.614L186.51 262.175H180.364V252.696H186.468V254.196Z" fill="black"/>
<path d="M204.296 252.696H205.962V262.175H204.441L199.733 255.571V262.175H198.066V252.696H199.587L204.296 259.3V252.696Z" fill="black"/>
<path d="M218.077 262.175V252.696H219.806V260.655H224.035L223.91 262.175H218.077Z" fill="black"/>
<path d="M242.245 252.696L238.933 257.925V262.175H237.183V257.967L233.766 252.696H235.745L238.12 256.425L240.433 252.696H242.245Z" fill="black"/>
<path d="M269.439 262.301C268.325 262.301 267.46 262.051 266.835 261.551C266.22 261.051 265.866 260.321 265.772 259.363L267.397 259.113C267.564 260.254 268.272 260.821 269.522 260.821C270.064 260.821 270.486 260.717 270.793 260.509C271.095 260.29 271.252 259.983 271.252 259.592C271.252 259.233 271.095 258.962 270.793 258.78C270.486 258.603 270.002 258.426 269.335 258.259C268.71 258.108 268.174 257.926 267.731 257.717C267.283 257.509 266.944 257.233 266.71 256.884C266.47 256.524 266.356 256.051 266.356 255.467C266.356 254.899 266.502 254.399 266.793 253.967C267.085 253.524 267.481 253.176 267.981 252.926C268.491 252.676 269.085 252.551 269.752 252.551C270.637 252.551 271.361 252.79 271.918 253.259C272.47 253.717 272.799 254.353 272.897 255.155L271.377 255.426C271.194 254.498 270.627 254.03 269.668 254.03C269.21 254.03 268.835 254.155 268.543 254.405C268.252 254.644 268.106 254.957 268.106 255.342C268.106 255.733 268.241 256.03 268.522 256.238C268.814 256.446 269.304 256.634 270.002 256.801C270.611 256.941 271.137 257.108 271.585 257.301C272.028 257.483 272.366 257.748 272.606 258.092C272.856 258.426 272.981 258.894 272.981 259.488C272.981 260.03 272.825 260.519 272.522 260.946C272.231 261.363 271.819 261.696 271.293 261.946C270.762 262.181 270.147 262.301 269.439 262.301Z" fill="black"/>
<path d="M292.526 260.342C292.151 260.967 291.63 261.457 290.964 261.801C290.307 262.134 289.573 262.301 288.755 262.301C287.781 262.301 286.948 262.113 286.255 261.738C285.557 261.363 285.026 260.832 284.651 260.134C284.286 259.426 284.109 258.587 284.109 257.613C284.109 256.613 284.307 255.738 284.714 254.988C285.13 254.228 285.698 253.629 286.422 253.196C287.156 252.769 288.005 252.551 288.964 252.551C289.781 252.551 290.484 252.712 291.068 253.03C291.651 253.337 292.135 253.811 292.526 254.446L291.193 255.405C290.953 254.962 290.641 254.634 290.255 254.426C289.865 254.217 289.432 254.113 288.964 254.113C288.349 254.113 287.807 254.269 287.339 254.571C286.88 254.863 286.516 255.274 286.255 255.801C285.99 256.316 285.859 256.915 285.859 257.592C285.859 258.582 286.115 259.353 286.63 259.905C287.141 260.462 287.859 260.738 288.776 260.738C289.286 260.738 289.755 260.623 290.172 260.384C290.599 260.149 290.953 259.795 291.234 259.321L292.526 260.342Z" fill="black"/>
<path d="M309.666 254.196H305.249V256.634H309.437V258.134H305.249V260.675H309.812L309.707 262.175H303.562V252.696H309.666V254.196Z" fill="black"/>
<path d="M327.493 252.696H329.16V262.175H327.639L322.931 255.571V262.175H321.264V252.696H322.785L327.493 259.3V252.696Z" fill="black"/>
<path d="M348.15 252.696L347.942 254.217H345.005V262.175H343.255V254.217H340.213V252.696H348.15Z" fill="black"/>
<path d="M362.035 262.301C360.921 262.301 360.056 262.051 359.431 261.551C358.817 261.051 358.462 260.321 358.369 259.363L359.994 259.113C360.16 260.254 360.869 260.821 362.119 260.821C362.66 260.821 363.082 260.717 363.389 260.509C363.692 260.29 363.848 259.983 363.848 259.592C363.848 259.233 363.692 258.962 363.389 258.78C363.082 258.603 362.598 258.426 361.931 258.259C361.306 258.108 360.77 257.926 360.327 257.717C359.879 257.509 359.541 257.233 359.306 256.884C359.067 256.524 358.952 256.051 358.952 255.467C358.952 254.899 359.098 254.399 359.389 253.967C359.681 253.524 360.077 253.176 360.577 252.926C361.087 252.676 361.681 252.551 362.348 252.551C363.233 252.551 363.957 252.79 364.514 253.259C365.067 253.717 365.395 254.353 365.494 255.155L363.973 255.426C363.791 254.498 363.223 254.03 362.264 254.03C361.806 254.03 361.431 254.155 361.139 254.405C360.848 254.644 360.702 254.957 360.702 255.342C360.702 255.733 360.837 256.03 361.119 256.238C361.41 256.446 361.9 256.634 362.598 256.801C363.207 256.941 363.733 257.108 364.181 257.301C364.624 257.483 364.962 257.748 365.202 258.092C365.452 258.426 365.577 258.894 365.577 259.488C365.577 260.03 365.421 260.519 365.119 260.946C364.827 261.363 364.416 261.696 363.889 261.946C363.358 262.181 362.744 262.301 362.035 262.301Z" fill="black"/>
</svg>
