<svg width="306" height="316" viewBox="0 0 306 316" fill="none" xmlns="http://www.w3.org/2000/svg">
<mask id="mask0_35_66" style="mask-type:luminance" maskUnits="userSpaceOnUse" x="0" y="0" width="306" height="316">
<path d="M0 0H306V316H0V0Z" fill="white"/>
</mask>
<g mask="url(#mask0_35_66)">
<path d="M262.099 257.943L254.74 58.1875H266.422L296.391 299.661L262.099 257.943ZM222.839 308.62L258.255 265.547L293.667 308.62H222.839ZM38.7031 58.1875H78.0261L74.375 86.6927C74.1042 88.8281 75.6146 90.7812 77.75 91.052C77.9167 91.0781 78.0886 91.0885 78.25 91.0885C80.1823 91.0885 81.8594 89.651 82.1146 87.6875L85.8958 58.1875H136.604C136.615 58.1875 136.615 58.1875 136.625 58.1875H177.266L180.036 87.5573C180.24 89.6979 182.156 91.2656 184.281 91.0729C186.427 90.8698 188 88.9687 187.797 86.8229L185.094 58.1875H228.12L210.953 308.62H8.44793L38.7031 58.1875ZM87.349 46.8385C90.1979 24.5573 109.292 7.76038 131.755 7.76038C139.089 7.76038 146.01 9.50517 152.125 12.6041C143.214 20.2395 136.833 30.8437 134.599 43.1093L133.276 50.3906H86.8906L87.349 46.8385ZM159.078 16.9895C168.615 24.3125 175.115 35.4323 176.333 48.3229L176.526 50.3906H141.198L142.266 44.5052C144.328 33.2135 150.5 23.5625 159.078 16.9895ZM186.313 7.76038H190.255C212.583 7.76038 231.661 24.4479 234.63 46.5781L235.141 50.3906H184.354L184.089 47.5885C182.76 33.4739 176.031 21.1718 166.052 12.6093C172.172 9.50517 179.068 7.76038 186.313 7.76038ZM235.932 58.1875H239.573C239.583 58.1875 239.594 58.1875 239.599 58.1875C239.604 58.1875 239.615 58.1875 239.625 58.1875H246.943L254.302 258.068L219.318 300.63L235.932 58.1875ZM305.776 311.974L273.734 53.8073C273.495 51.8593 271.833 50.3906 269.865 50.3906H243.01L242.359 45.5364C238.87 19.5573 216.469 -0.036499 190.255 -0.036499H186.313C176.417 -0.036499 167.083 2.72392 159.099 7.56246C151.125 2.72913 141.766 -0.036499 131.755 -0.036499C105.38 -0.036499 82.9636 19.6875 79.6094 45.8489L79.0313 50.3906H35.2448C33.2708 50.3906 31.6094 51.8645 31.3698 53.8177L0.177093 312.052C0.0416756 313.161 0.390635 314.271 1.13022 315.109C1.8698 315.943 2.93751 316.422 4.04688 316.422H301.896C301.901 316.422 301.911 316.422 301.922 316.422C302.755 316.422 303.599 316.151 304.302 315.604C304.307 315.599 304.307 315.599 304.307 315.599C304.359 315.557 304.411 315.516 304.469 315.469C305.219 314.818 305.667 313.932 305.786 313.01V313.005C305.786 313 305.786 312.995 305.786 312.995C305.797 312.917 305.802 312.839 305.807 312.76C305.807 312.755 305.807 312.755 305.807 312.755C305.823 312.495 305.818 312.234 305.776 311.974Z" fill="#5F6368"/>
</g>
</svg>
