<svg width="265" height="274" viewBox="0 0 265 274" fill="none" xmlns="http://www.w3.org/2000/svg">
<mask id="mask0_35_77" style="mask-type:luminance" maskUnits="userSpaceOnUse" x="0" y="146" width="265" height="128">
<path d="M0.494751 146H264.495V273.911H0.494751V146Z" fill="white"/>
</mask>
<g mask="url(#mask0_35_77)">
<mask id="mask1_35_77" style="mask-type:luminance" maskUnits="userSpaceOnUse" x="0" y="0" width="265" height="274">
<path d="M0.494751 29.9115V244.589C0.494751 260.604 13.4739 273.589 29.4948 273.589H235.651C251.667 273.589 264.651 260.604 264.651 244.589V29.9115C264.651 13.8907 251.667 0.911499 235.651 0.911499H29.4948C13.4739 0.911499 0.494751 13.8907 0.494751 29.9115Z" fill="white"/>
</mask>
<g mask="url(#mask1_35_77)">
<path d="M173.437 162.698C175.901 162.708 178.359 162.839 180.812 163.094C183.266 163.344 185.698 163.714 188.115 164.203C190.531 164.693 192.917 165.302 195.271 166.021C197.63 166.745 199.943 167.583 202.219 168.531C204.495 169.479 206.719 170.536 208.891 171.703C211.062 172.87 213.172 174.141 215.219 175.51C217.266 176.885 219.24 178.354 221.146 179.917C223.047 181.484 224.87 183.141 226.615 184.885C228.354 186.625 230.01 188.453 231.573 190.359C233.135 192.26 234.604 194.24 235.974 196.287C237.344 198.339 238.615 200.448 239.776 202.62C240.943 204.792 241.995 207.016 242.943 209.292C243.891 211.568 244.724 213.885 245.443 216.245C246.167 218.599 246.771 220.984 247.255 223.401C247.745 225.818 248.115 228.255 248.359 230.708C248.609 233.156 248.74 235.615 248.75 238.083V257.078H16.4218V238.083C16.4323 235.615 16.5625 233.156 16.8125 230.708C17.0677 228.255 17.4375 225.818 17.927 223.406C18.4166 220.99 19.0208 218.604 19.7448 216.245C20.4687 213.891 21.302 211.573 22.25 209.297C23.2031 207.021 24.2604 204.802 25.427 202.63C26.5937 200.458 27.8593 198.349 29.2343 196.302C30.6041 194.25 32.0729 192.276 33.6406 190.375C35.2083 188.469 36.8593 186.646 38.6041 184.906C40.3489 183.161 42.1718 181.51 44.0781 179.943C45.9843 178.38 47.9635 176.912 50.0104 175.542C52.0573 174.172 54.1718 172.906 56.3437 171.74C58.5156 170.578 60.7396 169.521 63.0156 168.573C65.2916 167.625 67.6093 166.792 69.9635 166.073C72.3229 165.354 74.7083 164.75 77.125 164.26C79.5416 163.771 81.9739 163.406 84.4271 163.156C86.8802 162.906 89.3385 162.776 91.8021 162.766H173.437M173.437 146.839H91.8021C90.3125 146.844 88.8177 146.885 87.3281 146.964C85.8385 147.042 84.3489 147.151 82.8646 147.302C81.3802 147.453 79.901 147.641 78.4271 147.865C76.9479 148.083 75.4791 148.344 74.0156 148.635C72.5521 148.932 71.0989 149.26 69.651 149.625C68.2031 149.99 66.7656 150.391 65.3385 150.828C63.9114 151.266 62.4948 151.734 61.0937 152.24C59.6875 152.745 58.2968 153.281 56.9166 153.854C55.5416 154.427 54.177 155.036 52.8281 155.672C51.4791 156.313 50.1458 156.984 48.8333 157.688C47.5156 158.396 46.2187 159.13 44.9375 159.901C43.6562 160.667 42.401 161.464 41.1562 162.297C39.9166 163.125 38.6979 163.984 37.5 164.875C36.302 165.766 35.125 166.682 33.9687 167.63C32.8177 168.573 31.6875 169.552 30.5833 170.552C29.4739 171.552 28.3958 172.583 27.3385 173.635C26.2812 174.693 25.2552 175.771 24.25 176.88C23.25 177.984 22.2708 179.115 21.3229 180.266C20.375 181.417 19.4583 182.594 18.5677 183.792C17.677 184.99 16.8177 186.208 15.9843 187.448C15.1562 188.688 14.3541 189.948 13.5885 191.224C12.8177 192.505 12.0781 193.802 11.375 195.12C10.6666 196.432 9.99475 197.766 9.35413 199.115C8.7135 200.458 8.10933 201.823 7.53121 203.203C6.95829 204.578 6.42183 205.969 5.91142 207.375C5.40621 208.776 4.93746 210.193 4.49996 211.62C4.06246 213.047 3.66142 214.484 3.29683 215.932C2.92704 217.38 2.59892 218.833 2.30204 220.297C2.00517 221.76 1.74996 223.229 1.526 224.703C1.30204 226.177 1.11454 227.662 0.963501 229.146C0.81246 230.63 0.697876 232.115 0.619751 233.609C0.541626 235.099 0.499959 236.589 0.494751 238.083V267.37C0.494751 267.734 0.526 268.099 0.598918 268.458C0.671834 268.818 0.776001 269.167 0.916626 269.505C1.05725 269.844 1.22913 270.167 1.43225 270.469C1.63538 270.776 1.86975 271.057 2.12496 271.318C2.38538 271.573 2.66663 271.807 2.97392 272.01C3.276 272.214 3.59892 272.385 3.93746 272.526C4.276 272.667 4.62496 272.771 4.98433 272.844C5.34371 272.912 5.70308 272.948 6.07288 272.948H259.115C259.479 272.948 259.839 272.912 260.198 272.844C260.557 272.771 260.906 272.667 261.245 272.526C261.583 272.385 261.906 272.214 262.214 272.01C262.516 271.807 262.797 271.573 263.057 271.318C263.318 271.057 263.547 270.776 263.75 270.469C263.953 270.167 264.125 269.844 264.266 269.505C264.406 269.167 264.51 268.818 264.583 268.458C264.656 268.099 264.693 267.734 264.693 267.37V238.083C264.687 236.589 264.646 235.099 264.568 233.609C264.49 232.115 264.38 230.63 264.229 229.146C264.078 227.656 263.891 226.177 263.667 224.703C263.448 223.224 263.187 221.755 262.896 220.292C262.599 218.828 262.271 217.375 261.906 215.927C261.542 214.479 261.141 213.042 260.703 211.615C260.266 210.188 259.797 208.771 259.292 207.365C258.786 205.964 258.25 204.573 257.677 203.193C257.104 201.813 256.495 200.453 255.854 199.104C255.219 197.755 254.547 196.422 253.839 195.104C253.135 193.792 252.396 192.49 251.63 191.214C250.859 189.932 250.062 188.672 249.234 187.432C248.401 186.193 247.542 184.974 246.656 183.771C245.766 182.573 244.844 181.396 243.901 180.245C242.953 179.089 241.979 177.958 240.974 176.854C239.974 175.75 238.943 174.667 237.891 173.615C236.833 172.557 235.755 171.526 234.646 170.526C233.542 169.521 232.411 168.547 231.26 167.599C230.109 166.651 228.932 165.729 227.734 164.839C226.536 163.953 225.318 163.089 224.078 162.26C222.839 161.427 221.578 160.63 220.297 159.859C219.016 159.094 217.719 158.354 216.406 157.646C215.089 156.943 213.76 156.271 212.411 155.63C211.062 154.99 209.698 154.38 208.323 153.807C206.943 153.234 205.552 152.693 204.146 152.188C202.745 151.682 201.328 151.214 199.901 150.776C198.474 150.339 197.036 149.938 195.589 149.573C194.141 149.203 192.687 148.875 191.224 148.578C189.76 148.281 188.292 148.026 186.812 147.802C185.339 147.578 183.859 147.391 182.375 147.24C180.891 147.089 179.401 146.974 177.911 146.896C176.422 146.818 174.927 146.776 173.437 146.771V146.839Z" fill="#5F6368"/>
</g>
</g>
<mask id="mask2_35_77" style="mask-type:luminance" maskUnits="userSpaceOnUse" x="66" y="0" width="132" height="132">
<path d="M66.6667 0.911499H197.333V131.333H66.6667V0.911499Z" fill="white"/>
</mask>
<g mask="url(#mask2_35_77)">
<mask id="mask3_35_77" style="mask-type:luminance" maskUnits="userSpaceOnUse" x="0" y="0" width="265" height="274">
<path d="M0.494873 29.9115V244.589C0.494873 260.604 13.474 273.589 29.4949 273.589H235.651C251.667 273.589 264.651 260.604 264.651 244.589V29.9115C264.651 13.8907 251.667 0.911499 235.651 0.911499H29.4949C13.474 0.911499 0.494873 13.8907 0.494873 29.9115Z" fill="white"/>
</mask>
<g mask="url(#mask3_35_77)">
<path d="M132.599 17.4688C134.193 17.4688 135.787 17.5469 137.375 17.7031C138.958 17.8594 140.537 18.0938 142.099 18.4063C143.667 18.7136 145.208 19.1042 146.734 19.5677C148.261 20.0261 149.761 20.5625 151.234 21.1771C152.708 21.7865 154.151 22.4688 155.557 23.2188C156.964 23.9688 158.328 24.7917 159.656 25.6771C160.984 26.5625 162.261 27.5104 163.495 28.5209C164.729 29.5365 165.912 30.6042 167.037 31.7344C168.167 32.8594 169.234 34.0417 170.245 35.2761C171.261 36.5052 172.208 37.7865 173.094 39.1146C173.979 40.4375 174.797 41.8073 175.552 43.2136C176.302 44.6198 176.985 46.0573 177.594 47.5313C178.203 49.0052 178.74 50.5052 179.203 52.0313C179.667 53.5573 180.052 55.1042 180.365 56.6719C180.677 58.2344 180.912 59.8073 181.068 61.3959C181.224 62.9844 181.302 64.5781 181.302 66.1719C181.302 67.7656 181.224 69.3594 181.068 70.9427C180.912 72.5313 180.677 74.1094 180.365 75.6719C180.052 77.2344 179.667 78.7813 179.203 80.3073C178.74 81.8334 178.203 83.3334 177.594 84.8073C176.985 86.2813 176.302 87.724 175.552 89.1302C174.797 90.5365 173.979 91.9011 173.094 93.2292C172.208 94.5573 171.261 95.8334 170.245 97.0677C169.234 98.3021 168.167 99.4792 167.037 100.609C165.912 101.74 164.729 102.807 163.495 103.818C162.261 104.833 160.984 105.781 159.656 106.667C158.328 107.552 156.964 108.37 155.557 109.125C154.151 109.875 152.708 110.557 151.234 111.167C149.761 111.776 148.261 112.313 146.734 112.776C145.208 113.24 143.667 113.625 142.099 113.938C140.537 114.25 138.958 114.484 137.375 114.641C135.787 114.797 134.193 114.875 132.599 114.875C131.005 114.875 129.412 114.797 127.823 114.641C126.24 114.484 124.662 114.25 123.099 113.938C121.531 113.625 119.99 113.24 118.464 112.776C116.932 112.313 115.432 111.776 113.958 111.167C112.49 110.557 111.047 109.875 109.641 109.125C108.234 108.37 106.865 107.552 105.542 106.667C104.214 105.781 102.938 104.833 101.703 103.818C100.469 102.807 99.2866 101.74 98.1616 100.609C97.0314 99.4792 95.9637 98.3021 94.9532 97.0677C93.9376 95.8334 92.9897 94.5573 92.1043 93.2292C91.2189 91.9011 90.4012 90.5365 89.646 89.1302C88.896 87.724 88.2137 86.2813 87.6043 84.8073C86.9949 83.3334 86.4585 81.8334 85.9949 80.3073C85.5314 78.7813 85.1407 77.2344 84.8335 75.6719C84.521 74.1094 84.2866 72.5313 84.1303 70.9427C83.9741 69.3594 83.896 67.7656 83.896 66.1719C83.9012 64.5781 83.9793 62.9844 84.1407 61.4011C84.3022 59.8125 84.5366 58.2396 84.8491 56.6771C85.1616 55.1146 85.5522 53.5729 86.0157 52.0469C86.4845 50.5209 87.021 49.0209 87.6303 47.5521C88.2449 46.0781 88.9272 44.6406 89.6772 43.2344C90.4324 41.8281 91.2501 40.4636 92.1355 39.1406C93.0262 37.8125 93.9741 36.5365 94.9845 35.3021C95.9949 34.0729 97.0678 32.8906 98.1928 31.7656C99.3178 30.6406 100.5 29.5677 101.734 28.5573C102.964 27.5469 104.245 26.599 105.568 25.7084C106.891 24.8229 108.255 24.0052 109.662 23.25C111.068 22.5 112.505 21.8177 113.979 21.2031C115.448 20.5938 116.948 20.0573 118.474 19.5886C120 19.125 121.542 18.7344 123.104 18.4219C124.667 18.1094 126.245 17.8698 127.828 17.7136C129.417 17.5521 131.005 17.474 132.599 17.4688ZM132.599 1.54169C130.484 1.54169 128.37 1.64585 126.266 1.85419C124.156 2.05731 122.068 2.36981 119.99 2.78127C117.912 3.19794 115.865 3.70835 113.839 4.32294C111.813 4.93752 109.823 5.65106 107.865 6.45835C105.912 7.27085 104 8.1719 102.13 9.1719C100.266 10.1719 98.4532 11.2552 96.6928 12.4323C94.9324 13.6094 93.2345 14.8698 91.5991 16.2136C89.9637 17.5521 88.396 18.974 86.896 20.4688C85.4012 21.9688 83.9793 23.5313 82.6407 25.1719C81.297 26.8073 80.0366 28.5052 78.8595 30.2656C77.6824 32.0261 76.5991 33.8386 75.5991 35.7031C74.6043 37.5729 73.698 39.4844 72.8855 41.4375C72.0782 43.3959 71.3647 45.3854 70.7501 47.4115C70.1355 49.4375 69.6251 51.4844 69.2085 53.5625C68.797 55.6406 68.4897 57.7292 68.2814 59.8386C68.073 61.9427 67.9689 64.0521 67.9689 66.1719C67.9689 68.2865 68.073 70.4011 68.2814 72.5052C68.4897 74.6146 68.797 76.7031 69.2085 78.7813C69.6251 80.8542 70.1355 82.9063 70.7501 84.9323C71.3647 86.9584 72.0782 88.9479 72.8855 90.9063C73.698 92.8594 74.6043 94.7709 75.5991 96.6354C76.5991 98.5052 77.6824 100.318 78.8595 102.078C80.0366 103.839 81.297 105.536 82.6407 107.172C83.9793 108.807 85.4012 110.375 86.896 111.87C88.396 113.37 89.9637 114.786 91.5991 116.13C93.2345 117.474 94.9324 118.734 96.6928 119.911C98.4532 121.083 100.266 122.172 102.13 123.172C104 124.167 105.912 125.073 107.865 125.88C109.823 126.693 111.813 127.406 113.839 128.021C115.865 128.635 117.912 129.146 119.99 129.557C122.068 129.974 124.156 130.281 126.266 130.49C128.37 130.698 130.484 130.802 132.599 130.802C134.714 130.802 136.828 130.698 138.932 130.49C141.042 130.281 143.13 129.974 145.208 129.557C147.281 129.146 149.333 128.635 151.359 128.021C153.386 127.406 155.375 126.693 157.333 125.88C159.287 125.073 161.198 124.167 163.068 123.172C164.932 122.172 166.745 121.083 168.505 119.911C170.266 118.734 171.964 117.474 173.599 116.13C175.234 114.786 176.802 113.37 178.297 111.87C179.797 110.375 181.214 108.807 182.557 107.172C183.901 105.536 185.162 103.839 186.339 102.078C187.511 100.318 188.599 98.5052 189.599 96.6354C190.594 94.7709 191.5 92.8594 192.307 90.9063C193.12 88.9479 193.833 86.9584 194.448 84.9323C195.063 82.9063 195.573 80.8542 195.99 78.7813C196.401 76.7031 196.708 74.6146 196.917 72.5052C197.125 70.4011 197.229 68.2865 197.229 66.1719C197.229 64.0521 197.125 61.9427 196.917 59.8386C196.708 57.7292 196.401 55.6406 195.99 53.5625C195.573 51.4844 195.063 49.4375 194.448 47.4115C193.833 45.3854 193.12 43.3959 192.307 41.4375C191.5 39.4844 190.594 37.5729 189.599 35.7031C188.599 33.8386 187.511 32.0261 186.339 30.2656C185.162 28.5052 183.901 26.8073 182.557 25.1719C181.214 23.5313 179.797 21.9688 178.297 20.4688C176.802 18.974 175.234 17.5521 173.599 16.2136C171.964 14.8698 170.266 13.6094 168.505 12.4323C166.745 11.2552 164.932 10.1719 163.068 9.1719C161.198 8.1719 159.287 7.27085 157.333 6.45835C155.375 5.65106 153.386 4.93752 151.359 4.32294C149.333 3.70835 147.281 3.19794 145.208 2.78127C143.13 2.36981 141.042 2.05731 138.932 1.85419C136.828 1.64585 134.714 1.54169 132.599 1.54169Z" fill="#5F6368"/>
</g>
</g>
</svg>
